<svg width="25" height="24" viewBox="0 0 25 24" fill="none" xmlns="http://www.w3.org/2000/svg">
<path d="M23.1304 15.4998L20.7104 5.84979C20.6517 5.61723 20.5113 5.41353 20.3149 5.27586C20.1184 5.13818 19.8791 5.07569 19.6404 5.09979C18.3004 5.23979 14.6404 5.49979 12.5004 5.49979C10.3604 5.49979 6.70042 5.23979 5.36042 5.09979C5.12177 5.07569 4.88241 5.13818 4.68599 5.27586C4.48957 5.41353 4.34918 5.61723 4.29042 5.84979L1.87042 15.4998C1.8174 15.6997 1.80631 15.9085 1.83785 16.113C1.86939 16.3174 1.94288 16.5131 2.0537 16.6878C2.16452 16.8625 2.31028 17.0124 2.48181 17.128C2.65333 17.2437 2.84693 17.3226 3.05042 17.3598C6.17929 17.8157 9.33866 18.0297 12.5004 17.9998C15.6622 18.0297 18.8216 17.8157 21.9504 17.3598C22.1539 17.3226 22.3475 17.2437 22.519 17.128C22.6906 17.0124 22.8363 16.8625 22.9471 16.6878C23.058 16.5131 23.1315 16.3174 23.163 16.113C23.1945 15.9085 23.1834 15.6997 23.1304 15.4998ZM12.5004 15.9998C9.63905 16.0277 6.77909 15.8607 3.94042 15.4998L6.00042 7.17979C7.50042 7.31979 10.6604 7.49979 12.5004 7.49979C14.3404 7.49979 17.5004 7.31979 19.0004 7.17979L21.0604 15.4998C18.2218 15.8607 15.3618 16.0277 12.5004 15.9998Z" fill="#202F40"/>
</svg>
