<svg width="24" height="24" viewBox="0 0 24 24" fill="none" xmlns="http://www.w3.org/2000/svg">
<path d="M3.55029 21H6.00029V19C6.00029 18.7167 6.09629 18.4793 6.28829 18.288C6.48029 18.0967 6.71762 18.0007 7.00029 18C7.28295 17.9993 7.52062 18.0953 7.71329 18.288C7.90595 18.4807 8.00162 18.718 8.00029 19V21H11.0003V19C11.0003 18.7167 11.0963 18.4793 11.2883 18.288C11.4803 18.0967 11.7176 18.0007 12.0003 18C12.283 17.9993 12.5206 18.0953 12.7133 18.288C12.906 18.4807 13.0016 18.718 13.0003 19V21H16.0003V19C16.0003 18.7167 16.0963 18.4793 16.2883 18.288C16.4803 18.0967 16.7176 18.0007 17.0003 18C17.283 17.9993 17.5206 18.0953 17.7133 18.288C17.906 18.4807 18.0016 18.718 18.0003 19V21H20.4503L19.4503 17H4.55029L3.55029 21ZM20.4503 23H3.55029C2.90029 23 2.37529 22.7417 1.97529 22.225C1.57529 21.7083 1.45862 21.1333 1.62529 20.5L3.00029 15V13C3.00029 12.45 3.19629 11.9793 3.58829 11.588C3.98029 11.1967 4.45095 11.0007 5.00029 11H9.00029V4C9.00029 3.16667 9.29195 2.45833 9.87529 1.875C10.4586 1.29167 11.167 1 12.0003 1C12.8336 1 13.542 1.29167 14.1253 1.875C14.7086 2.45833 15.0003 3.16667 15.0003 4V11H19.0003C19.5503 11 20.0213 11.196 20.4133 11.588C20.8053 11.98 21.001 12.4507 21.0003 13V15L22.3753 20.5C22.592 21.1333 22.496 21.7083 22.0873 22.225C21.6786 22.7417 21.133 23 20.4503 23Z" fill="#202F40"/>
</svg>
