<svg width="24" height="24" viewBox="0 0 24 24" fill="none" xmlns="http://www.w3.org/2000/svg">
<path d="M17.001 14.999V19.499M14.75 17.249H19.251M23 15.749C23.0032 17.4954 22.4103 19.1907 21.3193 20.5544C20.2283 21.9182 18.7046 22.8687 17 23.249C15.2955 22.8687 13.7717 21.9182 12.6807 20.5544C11.5897 19.1907 10.9968 17.4954 11 15.749V13.5C11 13.1022 11.158 12.7206 11.4394 12.4393C11.7207 12.158 12.1022 12 12.5 12H21.5C21.8978 12 22.2794 12.158 22.5607 12.4393C22.842 12.7206 23 13.1022 23 13.5V15.749Z" stroke="#202F40" stroke-width="1.5" stroke-linecap="round" stroke-linejoin="round"/>
<path d="M8.5 20.253H4C3.20435 20.253 2.44129 19.9369 1.87868 19.3743C1.31607 18.8117 1 18.0486 1 17.253V9.753C1 8.95735 1.31607 8.19429 1.87868 7.63168C2.44129 7.06907 3.20435 6.753 4 6.753H10C10.6795 6.75288 11.3389 6.98341 11.8702 7.40688C12.4016 7.83034 12.7735 8.42164 12.925 9.084M1 2.25L1.622 1.629C2.18399 1.06684 2.94611 0.7507 3.741 0.75H10.75M6.999 3.75V0.75M10 6.751H4V5.251C4 4.85318 4.15804 4.47164 4.43934 4.19034C4.72064 3.90904 5.10218 3.751 5.5 3.751H8.5C8.89782 3.751 9.27936 3.90904 9.56066 4.19034C9.84196 4.47164 10 4.85318 10 5.251V6.751Z" stroke="#202F40" stroke-width="1.5" stroke-linecap="round" stroke-linejoin="round"/>
</svg>
