<svg width="25" height="24" viewBox="0 0 25 24" fill="none" xmlns="http://www.w3.org/2000/svg">
<path d="M8.44 4.18155L5.181 7.43855C4.89979 7.71984 4.74182 8.1013 4.74182 8.49905C4.74182 8.89679 4.89979 9.27826 5.181 9.55955L9.105 13.4835C8.79249 13.9449 8.59467 14.4743 8.528 15.0275L4.12 10.6205C3.84137 10.342 3.62035 10.0112 3.46955 9.64721C3.31875 9.28321 3.24114 8.89306 3.24114 8.49905C3.24114 8.10504 3.31875 7.71489 3.46955 7.35088C3.62035 6.98687 3.84137 6.65613 4.12 6.37755L7.38 3.12055C7.94258 2.55813 8.70551 2.24219 9.501 2.24219C10.2965 2.24219 11.0594 2.55813 11.622 3.12055L15.068 6.56555C14.9927 6.62355 14.9213 6.68521 14.854 6.75055L14.751 6.74955C14.254 6.74955 13.817 6.86655 13.446 7.06555L10.562 4.18155C10.4227 4.04216 10.2573 3.93158 10.0752 3.85614C9.8932 3.7807 9.69806 3.74187 9.501 3.74187C9.30394 3.74187 9.1088 3.7807 8.92675 3.85614C8.7447 3.93158 8.5793 4.04216 8.44 4.18155ZM15.265 7.82155C15.0977 7.77275 14.9242 7.74849 14.75 7.74955C13.654 7.74955 13.004 8.64955 13.004 9.49955V13.1715C12.6803 13.057 12.3394 12.9988 11.996 12.9995C10.599 12.9995 9.5 14.0305 9.5 15.4995C9.5 15.7415 9.617 15.9685 9.813 16.1095L11.531 17.3385L12.485 18.1705C13.1233 18.7278 13.6969 19.3551 14.195 20.0405L14.795 20.8645C15.05 21.2159 15.3845 21.502 15.7712 21.6992C16.1579 21.8965 16.5859 21.9994 17.02 21.9995H18.658C19.589 21.9995 20.482 21.5255 20.963 20.6875C21.265 20.1615 21.639 19.4705 21.94 18.7855C22.226 18.1355 22.5 17.3725 22.5 16.7485V10.7485C22.5 9.89555 21.842 8.99955 20.75 8.99955C20.6407 8.99955 20.535 9.00855 20.433 9.02655C20.241 8.34455 19.641 7.75055 18.75 7.75055C18.5673 7.75055 18.396 7.77455 18.236 7.82255C18.0822 7.5671 17.864 7.35659 17.6032 7.21214C17.3423 7.06768 17.0481 6.99437 16.75 6.99955C16.4522 6.99444 16.1582 7.06769 15.8976 7.21196C15.6369 7.35622 15.4188 7.56644 15.265 7.82155ZM16.931 8.56955C16.9749 8.6185 16.9994 8.68179 17 8.74755V13.2485C17 13.4475 17.079 13.6382 17.2197 13.7789C17.3603 13.9195 17.5511 13.9985 17.75 13.9985C17.9489 13.9985 18.1397 13.9195 18.2803 13.7789C18.421 13.6382 18.5 13.4475 18.5 13.2485V9.44855C18.5059 9.40245 18.5262 9.35939 18.558 9.32555C18.5828 9.30012 18.6128 9.28027 18.6459 9.26734C18.679 9.25441 18.7145 9.24868 18.75 9.25055C18.845 9.25055 18.897 9.28355 18.93 9.32055C18.973 9.36655 19 9.43455 19 9.50055V13.7505C19 13.9495 19.079 14.1402 19.2197 14.2809C19.3603 14.4215 19.5511 14.5005 19.75 14.5005C19.9489 14.5005 20.1397 14.4215 20.2803 14.2809C20.421 14.1402 20.5 13.9495 20.5 13.7505V10.7505C20.5 10.6845 20.526 10.6175 20.57 10.5705C20.604 10.5325 20.656 10.5005 20.75 10.5005C20.844 10.5005 20.896 10.5325 20.93 10.5705C20.974 10.6175 21 10.6845 21 10.7505V16.7505C21 17.0305 20.851 17.5355 20.567 18.1835C20.297 18.7985 19.952 19.4375 19.662 19.9415C19.5591 20.1153 19.412 20.2586 19.2356 20.3568C19.0592 20.455 18.8599 20.5046 18.658 20.5005H17.02C16.62 20.5005 16.244 20.3085 16.009 19.9845L15.411 19.1605C14.8463 18.3834 14.1958 17.6722 13.472 17.0405L12.49 16.1845L12.434 16.1405L11.051 15.1505C11.175 14.7415 11.527 14.5005 11.997 14.5005C12.634 14.5005 13.087 14.9005 13.239 15.0345L13.269 15.0615C13.3781 15.1544 13.5115 15.214 13.6535 15.2334C13.7954 15.2528 13.94 15.2311 14.07 15.171C14.2 15.1108 14.3101 15.0146 14.3872 14.8939C14.4643 14.7731 14.5051 14.6328 14.505 14.4895V9.49955C14.505 9.43255 14.532 9.36455 14.575 9.31955C14.607 9.28255 14.657 9.24955 14.751 9.24955C14.846 9.24955 14.898 9.28355 14.931 9.31955C14.974 9.36555 15.001 9.43355 15.001 9.49955V13.2495C15.001 13.4485 15.08 13.6392 15.2207 13.7799C15.3613 13.9205 15.5521 13.9995 15.751 13.9995C15.9499 13.9995 16.1407 13.9205 16.2813 13.7799C16.422 13.6392 16.501 13.4485 16.501 13.2495V8.74855C16.5018 8.68266 16.5267 8.61935 16.571 8.57055C16.605 8.53255 16.657 8.50055 16.751 8.50055C16.845 8.50055 16.897 8.53255 16.931 8.57055M4.75 13.9995C4.94891 13.9995 5.13968 14.0786 5.28033 14.2192C5.42098 14.3599 5.5 14.5506 5.5 14.7495V15.4965H6.246C6.44491 15.4965 6.63568 15.5756 6.77633 15.7162C6.91698 15.8569 6.996 16.0476 6.996 16.2465C6.996 16.4455 6.91698 16.6362 6.77633 16.7769C6.63568 16.9175 6.44491 16.9965 6.246 16.9965H5.5V17.7525C5.5 17.9515 5.42098 18.1422 5.28033 18.2829C5.13968 18.4235 4.94891 18.5025 4.75 18.5025C4.55109 18.5025 4.36032 18.4235 4.21967 18.2829C4.07902 18.1422 4 17.9515 4 17.7525V16.9965H3.25C3.05109 16.9965 2.86032 16.9175 2.71967 16.7769C2.57902 16.6362 2.5 16.4455 2.5 16.2465C2.5 16.0476 2.57902 15.8569 2.71967 15.7162C2.86032 15.5756 3.05109 15.4965 3.25 15.4965H4.001V14.7485C4.001 14.5496 4.08002 14.3589 4.22067 14.2182C4.36132 14.0776 4.55209 13.9985 4.751 13.9985M8.751 17.4985C8.94991 17.4985 9.14068 17.5776 9.28133 17.7182C9.42198 17.8589 9.501 18.0496 9.501 18.2485V18.9955H10.247C10.4459 18.9955 10.6367 19.0746 10.7773 19.2152C10.918 19.3559 10.997 19.5466 10.997 19.7455C10.997 19.9445 10.918 20.1352 10.7773 20.2759C10.6367 20.4165 10.4459 20.4955 10.247 20.4955H9.5V21.2515C9.5 21.4505 9.42098 21.6412 9.28033 21.7819C9.13968 21.9225 8.94891 22.0015 8.75 22.0015C8.55109 22.0015 8.36032 21.9225 8.21967 21.7819C8.07902 21.6412 8 21.4505 8 21.2515V20.4955H7.25C7.05109 20.4955 6.86032 20.4165 6.71967 20.2759C6.57902 20.1352 6.5 19.9445 6.5 19.7455C6.5 19.5466 6.57902 19.3559 6.71967 19.2152C6.86032 19.0746 7.05109 18.9955 7.25 18.9955H8.001V18.2485C8.001 18.0496 8.08002 17.8589 8.22067 17.7182C8.36132 17.5776 8.55209 17.4985 8.751 17.4985Z" fill="#202F40"/>
</svg>
