<svg width="25" height="24" viewBox="0 0 25 24" fill="none" xmlns="http://www.w3.org/2000/svg">
<path fill-rule="evenodd" clip-rule="evenodd" d="M17.7782 2.61281C17.8746 2.37694 18.0574 2.18678 18.2893 2.08116C18.5212 1.97554 18.7847 1.96243 19.0259 2.0445C19.2671 2.12657 19.4679 2.29763 19.5873 2.52276C19.7067 2.74788 19.7356 3.01008 19.6682 3.25581L19.6302 3.36581L17.0202 9.78581L17.6772 9.96081C18.7272 10.2418 19.6012 11.0948 19.7672 12.2588C19.9092 13.2588 20.0422 14.7788 19.8592 16.3448C19.6772 17.8968 19.1692 19.6228 17.9122 20.8908C17.4502 21.3568 16.7872 21.4308 16.3392 21.4388C15.8282 21.4468 15.2392 21.3688 14.6342 21.2488C13.4182 21.0068 11.9602 20.5588 10.5802 20.0828L10.1662 19.9378L9.35317 19.6438L8.57317 19.3528L7.83917 19.0698L6.86117 18.6818L6.03917 18.3468L5.22217 18.0018C5.06185 17.9341 4.92198 17.8257 4.81639 17.6873C4.71081 17.549 4.64316 17.3855 4.62013 17.213C4.5971 17.0404 4.61949 16.8649 4.68509 16.7037C4.75069 16.5425 4.85723 16.4012 4.99417 16.2938C6.37117 15.2138 7.66417 13.9718 8.75517 12.8248L9.28417 12.2608L9.53417 11.9868L10.0062 11.4598L10.2262 11.2078L10.8202 10.5128L11.1572 10.1068C11.51 9.67389 11.9733 9.34434 12.4981 9.15301C13.0228 8.96167 13.5894 8.91565 14.1382 9.01981L14.3372 9.06581L15.0742 9.26281L17.7782 2.61281ZM11.0002 13.3478C9.90531 14.5595 8.74385 15.7093 7.52117 16.7918C8.0965 17.0245 8.67417 17.2511 9.25417 17.4718C9.78735 17.0918 10.267 16.6417 10.6802 16.1338C10.8554 15.9255 11.0184 15.7071 11.1682 15.4798L11.3102 15.2478C11.4418 15.0211 11.6571 14.8551 11.9099 14.7856C12.1626 14.7161 12.4326 14.7486 12.6616 14.8762C12.8906 15.0037 13.0604 15.2161 13.1344 15.4676C13.2084 15.7191 13.1806 15.9896 13.0572 16.2208C12.8232 16.6408 12.5302 17.0348 12.2252 17.4048C11.978 17.7053 11.7136 17.9911 11.4332 18.2608C11.8952 18.4188 12.3572 18.5688 12.8052 18.7068C13.1782 18.4498 13.6152 17.9218 14.0112 17.3218C14.1705 17.0818 14.3212 16.8351 14.4632 16.5818L14.6672 16.1978C14.7848 15.96 14.9921 15.7787 15.2433 15.6938C15.4946 15.6088 15.7694 15.6272 16.0072 15.7448C16.2449 15.8624 16.4262 16.0697 16.5112 16.321C16.5961 16.5723 16.5778 16.847 16.4602 17.0848C16.2312 17.5468 15.9642 17.9938 15.6802 18.4238C15.4831 18.7233 15.2715 19.013 15.0462 19.2918L15.4672 19.3738C15.8292 19.4408 16.2112 19.4878 16.5562 19.4168C17.3222 18.6018 17.7192 17.4188 17.8722 16.1118C17.9075 15.8078 17.9302 15.5065 17.9402 15.2078L11.0002 13.3478ZM13.8192 10.9978C13.6165 10.9473 13.4035 10.956 13.2057 11.023C13.0078 11.09 12.8334 11.2125 12.7032 11.3758L12.4602 11.6688L17.8582 13.1148L17.8112 12.7228L17.7872 12.5408C17.7502 12.2878 17.5712 12.0498 17.2762 11.9308L17.1602 11.8928L13.8192 10.9978ZM6.06517 7.71581L6.12917 7.85581C6.40186 8.4199 6.83133 8.89346 7.36617 9.21981L7.46617 9.27781C7.47656 9.28376 7.48519 9.29235 7.49119 9.30271C7.4972 9.31307 7.50036 9.32483 7.50036 9.33681C7.50036 9.34878 7.4972 9.36054 7.49119 9.3709C7.48519 9.38126 7.47656 9.38985 7.46617 9.39581L7.36617 9.45381C6.83141 9.78084 6.40227 10.2551 6.13017 10.8198L6.06617 10.9588C6.06062 10.9714 6.05152 10.9822 6.03998 10.9897C6.02844 10.9972 6.01495 11.0012 6.00117 11.0012C5.98738 11.0012 5.9739 10.9972 5.96236 10.9897C5.95081 10.9822 5.94171 10.9714 5.93617 10.9588L5.87217 10.8188C5.59948 10.2547 5.17001 9.78116 4.63517 9.45481L4.53517 9.39681C4.52478 9.39086 4.51615 9.38226 4.51014 9.3719C4.50414 9.36154 4.50098 9.34978 4.50098 9.33781C4.50098 9.32583 4.50414 9.31407 4.51014 9.30371C4.51615 9.29335 4.52478 9.28476 4.53517 9.27881L4.63517 9.22081C5.16956 8.89362 5.59833 8.41937 5.87017 7.85481L5.93417 7.71581C5.93971 7.70319 5.94881 7.69246 5.96036 7.68492C5.9719 7.67739 5.98538 7.67337 5.99917 7.67337C6.01295 7.67337 6.02644 7.67739 6.03798 7.68492C6.04952 7.69246 6.05962 7.70319 6.06517 7.71581ZM8.89717 2.85681C8.93717 2.76681 9.06317 2.76681 9.10317 2.85681L9.20517 3.07881C9.64003 3.97643 10.3239 4.73005 11.1752 5.24981L11.3322 5.34281C11.349 5.35215 11.3631 5.36584 11.3729 5.38246C11.3827 5.39908 11.3879 5.41802 11.3879 5.43731C11.3879 5.4566 11.3827 5.47554 11.3729 5.49216C11.3631 5.50878 11.349 5.52247 11.3322 5.53181L11.1742 5.62381C10.3227 6.14383 9.63888 6.89782 9.20417 7.79581L9.10417 8.01781C9.09536 8.03792 9.08087 8.05503 9.06249 8.06704C9.04411 8.07906 9.02263 8.08546 9.00067 8.08546C8.97871 8.08546 8.95723 8.07906 8.93885 8.06704C8.92046 8.05503 8.90598 8.03792 8.89717 8.01781L8.79517 7.79581C8.36046 6.89782 7.6766 6.14383 6.82517 5.62381L6.66717 5.53181C6.65029 5.52247 6.63622 5.50878 6.62642 5.49216C6.61662 5.47554 6.61145 5.4566 6.61145 5.43731C6.61145 5.41802 6.61662 5.39908 6.62642 5.38246C6.63622 5.36584 6.65029 5.35215 6.66717 5.34281L6.82617 5.24981C7.67746 4.73005 8.3613 3.97643 8.79617 3.07881L8.89617 2.85681H8.89717Z" fill="#202F40"/>
</svg>
