<svg width="24" height="24" viewBox="0 0 24 24" fill="none" xmlns="http://www.w3.org/2000/svg">
<path d="M4 22C3.16667 22 2.45833 21.7083 1.875 21.125C1.29167 20.5417 1 19.8333 1 19C1 18.1667 1.29167 17.4583 1.875 16.875C2.45833 16.2917 3.16667 16 4 16C4.83333 16 5.54167 16.2917 6.125 16.875C6.70833 17.4583 7 18.1667 7 19C7 19.8333 6.70833 20.5417 6.125 21.125C5.54167 21.7083 4.83333 22 4 22ZM4 20C4.28333 20 4.521 19.904 4.713 19.712C4.905 19.52 5.00067 19.2827 5 19C4.99933 18.7173 4.90333 18.48 4.712 18.288C4.52067 18.096 4.28333 18 4 18C3.71667 18 3.47933 18.096 3.288 18.288C3.09667 18.48 3.00067 18.7173 3 19C2.99933 19.2827 3.09533 19.5203 3.288 19.713C3.48067 19.9057 3.718 20.0013 4 20ZM8 22C8.33333 21.5667 8.58333 21.0917 8.75 20.575C8.91667 20.0583 9 19.5333 9 19C9 17.6167 8.51233 16.4377 7.537 15.463C6.56167 14.4883 5.38267 14.0007 4 14C3.66667 14 3.32933 14.0333 2.988 14.1C2.64667 14.1667 2.31733 14.2667 2 14.4V9H5V5.6C5 4.31667 5.446 3.22933 6.338 2.338C7.23 1.44667 8.31733 1.00067 9.6 1C10.5333 1 11.3833 1.25433 12.15 1.763C12.9167 2.27167 13.4833 2.95067 13.85 3.8L20.675 20H23V22H16V20H18.5L12.025 4.6C11.825 4.11667 11.5043 3.72933 11.063 3.438C10.6217 3.14667 10.134 3.00067 9.6 3C8.88333 3 8.271 3.25433 7.763 3.763C7.255 4.27167 7.00067 4.884 7 5.6V9H9C10.1 9 11.0417 9.39167 11.825 10.175C12.6083 10.9583 13 11.9 13 13V22H8Z" fill="#202F40"/>
</svg>
