<svg width="25" height="24" viewBox="0 0 25 24" fill="none" xmlns="http://www.w3.org/2000/svg">
<path d="M13.5002 11.0002L18.5002 6.00021M19.5002 7.00021L17.5002 5.00021L20.0002 3.50021L21.0002 4.50021L19.5002 7.00021ZM4.52525 8.97521C4.04514 8.49552 3.71485 7.8866 3.57459 7.22258C3.43433 6.55856 3.49014 5.86808 3.73525 5.23521L5.15725 6.65721H7.15725V4.65721L5.73525 3.23521C6.36816 2.98955 7.05886 2.93327 7.7232 3.07322C8.38753 3.21318 8.99682 3.54333 9.47683 4.02345C9.95685 4.50357 10.2869 5.11293 10.4267 5.7773C10.5665 6.44166 10.51 7.13235 10.2642 7.76521L16.7342 14.2362C17.3671 13.9904 18.0578 13.934 18.7222 14.0738C19.3865 14.2136 19.9959 14.5436 20.476 15.0236C20.9561 15.5036 21.2863 16.1129 21.4262 16.7773C21.5662 17.4416 21.5099 18.1323 21.2642 18.7652L19.8432 17.3432H17.8432V19.3432L19.2652 20.7652C18.6325 21.0109 17.942 21.0672 17.2777 20.9274C16.6135 20.7877 16.0043 20.4577 15.5242 19.9779C15.0442 19.498 14.714 18.8889 14.5739 18.2248C14.4338 17.5606 14.4899 16.8701 14.7352 16.2372L8.26325 9.76521C7.63064 10.0099 6.94057 10.0655 6.27695 9.92523C5.61333 9.78498 5.00476 9.45493 4.52525 8.97521Z" stroke="#202F40" stroke-width="1.5" stroke-linecap="round" stroke-linejoin="round"/>
<path d="M12.7033 14.4999L7.09931 20.1039C6.97392 20.2295 6.82498 20.3292 6.66103 20.3972C6.49707 20.4652 6.32131 20.5002 6.14381 20.5002C5.96631 20.5002 5.79055 20.4652 5.6266 20.3972C5.46264 20.3292 5.31371 20.2295 5.18831 20.1039L4.39631 19.3119C4.27068 19.1865 4.17101 19.0375 4.10301 18.8736C4.035 18.7096 4 18.5339 4 18.3564C4 18.1789 4.035 18.0031 4.10301 17.8392C4.17101 17.6752 4.27068 17.5263 4.39631 17.4009L10.0003 11.7969" stroke="#202F40" stroke-width="1.5" stroke-linecap="round" stroke-linejoin="round"/>
</svg>
